<svg width="180" height="48" viewBox="0 0 180 48" fill="none" xmlns="http://www.w3.org/2000/svg">
<path fill-rule="evenodd" clip-rule="evenodd" d="M23.8319 47.9998C36.9391 47.9998 47.6634 37.1998 47.6634 24.0001V23.9997C47.6634 10.8 36.9391 0 23.8319 0C10.7243 0 0 10.8 0 23.9997V24.0001C0 37.1998 10.7243 47.9998 23.8319 47.9998Z" fill="url(#paint0_linear_3498_111401)"/>
<path fill-rule="evenodd" clip-rule="evenodd" d="M16.3007 14.3036C18.0902 14.3036 19.7655 14.7955 21.2012 15.6518H21.2029L21.2411 15.675C21.2965 15.7084 21.3506 15.7422 21.4056 15.7765L22.3293 16.347L33.2714 22.9883L34.3952 21.1967L34.5753 21.2136L36.2229 26.3858C36.4143 27.084 36.3136 27.4344 35.773 27.2615L25.3652 20.7137L20.3568 17.6403C19.1872 16.8825 17.7947 16.4425 16.3007 16.4425C12.1543 16.4425 8.79319 19.8274 8.79319 24.003C8.79319 28.1787 12.1548 31.5635 16.3007 31.5635C19.1503 31.5635 21.6288 29.9647 22.9009 27.6094L24.7172 28.723C23.0708 31.6941 19.9191 33.7038 16.3007 33.7038C10.9805 33.7038 6.66797 29.3608 6.66797 24.003C6.66797 18.6457 10.9805 14.3027 16.3007 14.3027V14.3036Z" fill="#F5A623"/>
<path fill-rule="evenodd" clip-rule="evenodd" d="M31.3911 33.7038C29.6016 33.7038 27.9263 33.2118 26.4906 32.3556H26.4889L26.4507 32.3319C26.3958 32.2985 26.3412 32.2647 26.2867 32.2305L25.3625 31.6599L14.4204 25.0186L13.297 26.8102L13.1169 26.7933L11.4693 21.6211C11.2796 20.9043 11.3858 20.6067 11.8777 20.8553L15.8691 23.3209L22.3266 27.2928L27.335 30.3662C28.5046 31.124 29.8971 31.564 31.3911 31.564C35.5375 31.564 38.8986 28.1791 38.8986 24.0035C38.8986 19.8278 35.5375 16.443 31.3911 16.443C29.3301 16.443 27.4634 17.2793 26.1066 18.6335L24.2429 17.5021C26.0055 15.5377 28.555 14.3027 31.3911 14.3027C36.7113 14.3027 41.0238 18.6457 41.0238 24.0035C41.0238 29.3608 36.7113 33.7038 31.3911 33.7038V33.7038Z" fill="white"/>
<path fill-rule="evenodd" clip-rule="evenodd" d="M34.4757 21.1406C34.5311 21.1406 34.5764 21.1858 34.5764 21.2421C34.5764 21.2978 34.5311 21.3435 34.4757 21.3435C34.4199 21.3435 34.375 21.2983 34.375 21.2421C34.375 21.1858 34.4199 21.1406 34.4757 21.1406Z" fill="#F5A623"/>
<path fill-rule="evenodd" clip-rule="evenodd" d="M13.1925 26.8454C13.1371 26.8454 13.0918 26.8002 13.0918 26.744C13.0918 26.6882 13.1367 26.6426 13.1925 26.6426C13.2479 26.6426 13.2932 26.6878 13.2932 26.744C13.2932 26.8002 13.2479 26.8454 13.1925 26.8454Z" fill="white"/>
<path d="M61.4941 32.2641H66.7107L72.5407 14.2383H68.0658L64.1024 27.5001L60.139 14.2383H55.6641L61.4941 32.2641Z" fill="#04396D"/>
<path d="M75.3618 18.2522C76.615 18.2522 77.6633 17.1965 77.6633 15.9345C77.6633 14.6725 76.615 13.6172 75.3618 13.6172C74.1091 13.6172 73.0608 14.6729 73.0608 15.9345C73.0608 17.1965 74.1091 18.2522 75.3618 18.2522ZM73.4444 32.2609H77.2797V19.3853H73.4444V32.2609Z" fill="#04396D"/>
<path d="M87.5913 23.0984V19.3902H84.9574V15.7852L81.1221 16.944V19.3902H79.0762V23.0984H81.1221V27.6561C81.1221 31.2612 82.5796 32.7805 87.5913 32.2654V28.7634C85.9038 28.8665 84.9574 28.7634 84.9574 27.6561V23.0984H87.5913Z" fill="#04396D"/>
<path d="M98.7727 19.3796V20.59C97.9287 19.6116 96.676 19.0195 94.9629 19.0195C91.6131 19.0195 88.8516 21.9809 88.8516 25.8176C88.8516 29.6547 91.6131 32.6161 94.9629 32.6161C96.676 32.6161 97.9291 32.024 98.7727 31.0452V32.2556H102.608V19.38L98.7727 19.3796ZM95.7301 28.959C93.9658 28.959 92.687 27.7486 92.687 25.8172C92.687 23.8862 93.9658 22.6757 95.7301 22.6757C97.4944 22.6757 98.7727 23.8862 98.7727 25.8172C98.7727 27.7486 97.4939 28.959 95.7301 28.959Z" fill="#04396D"/>
<path d="M105.422 32.2515H109.258V13.4531H105.422V32.2515Z" fill="#04396D"/>
<path d="M118.482 32.6159C122.369 32.6159 125.13 30.5556 125.13 27.0794C125.13 23.2685 122.088 22.3155 119.377 21.4914C116.59 20.6414 116.155 20.0751 116.155 19.251C116.155 18.53 116.794 17.8863 118.073 17.8863C119.709 17.8863 120.553 18.6846 121.167 19.972L124.619 17.9378C123.315 15.2854 121.013 13.8691 118.073 13.8691C114.978 13.8691 112.063 15.8775 112.063 19.3541C112.063 22.8045 114.672 24.0922 117.331 24.839C120.016 25.5858 121.039 26.0237 121.039 27.131C121.039 27.8262 120.553 28.5988 118.61 28.5988C116.59 28.5988 115.49 27.5946 114.851 26.101L111.322 28.1614C112.319 30.8138 114.723 32.6159 118.482 32.6159Z" fill="#04396D"/>
<path d="M140.615 19.3711L138.774 26.2723L136.78 19.3711H133.2L131.205 26.2723L129.364 19.3711H125.273L129.364 32.2466H132.944L134.99 25.3712L137.036 32.2466H140.615L144.707 19.3711H140.615Z" fill="#04396D"/>
<path d="M155.001 19.3796V20.59C154.157 19.6116 152.904 19.0195 151.191 19.0195C147.842 19.0195 145.08 21.9809 145.08 25.8176C145.08 29.6547 147.842 32.6161 151.191 32.6161C152.904 32.6161 154.158 32.024 155.001 31.0452V32.2556H158.836V19.38L155.001 19.3796ZM151.959 28.959C150.194 28.959 148.915 27.7486 148.915 25.8172C148.915 23.8862 150.194 22.6757 151.959 22.6757C153.723 22.6757 155.001 23.8862 155.001 25.8172C155.001 27.7486 153.722 28.959 151.959 28.959Z" fill="#04396D"/>
<path d="M169.295 19.02C167.582 19.02 166.329 19.6121 165.486 20.5905V19.38H161.65V37.4058H165.486V31.0452C166.33 32.0236 167.582 32.6161 169.295 32.6161C172.645 32.6161 175.407 29.6547 175.407 25.8176C175.407 21.9809 172.645 19.02 169.295 19.02ZM168.528 28.9599C166.764 28.9599 165.486 27.7495 165.486 25.818C165.486 23.887 166.764 22.6766 168.528 22.6766C170.293 22.6766 171.571 23.887 171.571 25.818C171.571 27.7495 170.293 28.9599 168.528 28.9599Z" fill="#04396D"/>
<defs>
<linearGradient id="paint0_linear_3498_111401" x1="0.000419672" y1="23.9984" x2="47.6638" y2="23.9984" gradientUnits="userSpaceOnUse">
<stop stop-color="#03204C"/>
<stop offset="1" stop-color="#035C96"/>
</linearGradient>
</defs>
</svg>
